<svg data-v-6805eed4="" version="1.0" xmlns="http://www.w3.org/2000/svg" xmlns:xlink="http://www.w3.org/1999/xlink" width="100%" height="100%" viewBox="0 0 340.000000 250.000000" preserveAspectRatio="xMidYMid meet" color-interpolation-filters="sRGB" style="margin: auto;">   <g data-v-6805eed4="" fill="#333" class="icon-text-wrapper icon-svg-group iconsvg" transform="translate(52.35499572753906,96.60698509216309)"><g class="iconsvg-imagesvg" transform="translate(0,0)"><g><rect fill="#333" fill-opacity="0" stroke-width="2" x="0" y="0" width="60" height="55.24353190313967" class="image-rect"></rect> <svg x="0" y="0" width="60" height="55.24353190313967" filtersec="colorsb8097989010" class="image-svg-svg primary" style="overflow: visible;"><svg xmlns="http://www.w3.org/2000/svg" viewBox="0 -0.0006262734532356262 46.32999801635742 42.65729522705078"><path d="M5.4.17c2.3-.3 4.69 0 7-.09 1.37.07 2.84-.36 4.12.26C12.93.39 9.31.22 5.69.41c1.52 3.18 3.55 6.08 5.16 9.2-1.71 3.15-3.7 6.14-5.26 9.39 1.78.06 3.57 0 5.35 0 .85 1.6 1.77 3.15 2.66 4.72 1.71 3.28 3.87 6.28 5.27 9.6-1.76 3.08-3.49 6.19-5.35 9.21-1.81-3.13-3.64-6.24-5.41-9.39.77-1.61 1.89-3 2.58-4.68A20.21 20.21 0 0 0 9 25.22C6 20 2.88 14.85 0 9.58 1.7 6.39 3.57 3.28 5.4.17z" fill="#87ebff"></path><path d="M29.81 4.82l.09.18c1.81 3.14 3.83 6.18 5.34 9.49-1.81 3.13-3.58 6.27-5.43 9.38-1.61-3.3-3.71-6.31-5.35-9.59.85-1.56 1.75-3.1 2.65-4.64s1.89-3.16 2.7-4.82zM10.85 9.61h10.88c-1.83 3.12-3.56 6.3-5.45 9.38H5.59c1.56-3.24 3.55-6.23 5.26-9.38z" fill="#0a36ef"></path><path d="M35.24 14.47a92 92 0 0 1 10.89 0q-2.64 4.68-5.36 9.29h-5.41c-1.83 3.1-3.57 6.25-5.43 9.33-1-1.54-1.87-3.13-2.75-4.72.87-1.51 1.72-3 2.63-4.5 1.85-3.13 3.62-6.27 5.43-9.4zM18.87 33.32a79.89 79.89 0 0 1 10.94 0c-1.74 3.13-3.54 6.22-5.35 9.31-3.65 0-7.3.06-10.94 0 1.86-3.12 3.59-6.23 5.35-9.31z" fill="#0a36ef"></path><path d="M5.69.41C9.31.22 12.93.39 16.54.34c.7 1.57 1.65 3 2.47 4.5 3.6.08 7.2.11 10.8 0-.81 1.66-1.74 3.24-2.7 4.8H10.85C9.24 6.49 7.21 3.59 5.69.41zM29.9 5c3.63-.18 7.28-.06 10.91-.07 1.84 3.19 3.69 6.36 5.52 9.55h-.2a92 92 0 0 0-10.89 0C33.73 11.16 31.71 8.12 29.9 5zM13.6 23.73h10.9q1.32 2.31 2.68 4.62c.88 1.59 1.78 3.18 2.75 4.72l.13.23h-.25a79.89 79.89 0 0 0-10.94 0c-1.4-3.3-3.56-6.3-5.27-9.57z" fill="#87ebff"></path></svg></svg> <!----></g></g> <g transform="translate(74.70999908447266,1.2435302734375)"><g data-gra="path-name" fill-rule="" stroke="#333" class="tp-name iconsvg-namesvg" transform="translate(0,0)"><g transform="scale(1)"><g><path d="M10.35-36.08L19.77-36.08Q24.27-36.08 26.67-34.65 29.06-33.22 29.06-29.01L29.06-29.01Q29.06-24.91 26.67-23.42 24.27-21.93 19.77-21.93L19.77-21.93 10.35-21.93 10.35-36.08ZM23.68-17.54Q34.97-18.83 34.97-29.01L34.97-29.01Q34.97-35.85 30.7-38.36L30.7-38.36Q26.37-40.94 19.3-40.94L19.3-40.94 4.68-40.94 4.68 0 9.47 0Q9.82 0 10.09-0.26 10.35-0.53 10.35-0.88L10.35-0.88 10.35-17.31 18.07-17.31 28.54 0 34.39 0 23.68-17.54ZM57.19 0Q57.72 0 57.95-0.53L57.95-0.53 72.63-40.94 67.54-40.94 55.67-7.66 43.74-40.94 37.54-40.94 52.4 0 57.19 0ZM81.93-34.85Q82.28-34.85 82.54-35.12 82.81-35.38 82.81-35.73L82.81-35.73 82.81-40.99 77.43-40.99 77.43-34.85 81.93-34.85ZM81.93 0Q82.28 0 82.54-0.26 82.81-0.53 82.81-0.88L82.81-0.88 82.81-32.11 77.43-32.11 77.43 0 81.93 0ZM113.22-10.94Q111.29-7.49 108.98-6.32 106.67-5.15 104.27-5.15L104.27-5.15Q101.81-5.15 99.65-6.32 97.49-7.49 96.14-9.71 94.8-11.93 94.8-14.91L94.8-14.91 118.42-14.91Q118.48-15.56 118.48-16.37L118.48-16.37Q118.48-21.58 116.43-25.29 114.39-29.01 111.08-30.88 107.78-32.75 104.04-32.75L104.04-32.75Q100.23-32.75 96.84-30.82 93.45-28.89 91.35-25.12 89.24-21.35 89.24-16.08L89.24-16.08Q89.24-11.05 91.4-7.4 93.57-3.74 97.08-1.87 100.58 0 104.5 0L104.5 0Q109.01 0 112.72-2.51 116.43-5.03 118.01-9.77L118.01-9.77 113.22-10.94ZM95.09-19.3Q95.26-22.11 96.58-24.15 97.89-26.2 99.91-27.28 101.93-28.36 104.09-28.36L104.09-28.36Q107.43-28.36 109.91-26.02 112.4-23.68 112.75-19.3L112.75-19.3 95.09-19.3ZM136.32 0Q136.67 0 136.84-0.09 137.02-0.18 137.13-0.58L137.13-0.58 143.39-23.98 149.71 0 154.68 0Q155.03 0 155.18-0.12 155.32-0.23 155.44-0.58L155.44-0.58 165.26-32.69 160-32.69 152.69-7.49 146.32-32.11 140.82-32.11Q139.3-26.49 138.48-23.68L138.48-23.68Q137.31-19.47 136.11-15.03 134.91-10.58 134.15-6.84L134.15-6.84 127.25-32.69 121.64-32.69 131.23 0 136.32 0Z" transform="translate(-4.679999828338623, 40.9900016784668)" stroke-width="0.8" stroke-linejoin="round" mask="url(#ojNhBAzA6EknuPN39x9Jp)"></path></g> <!----> <!----> <!----> <!----> <!----> <!----> <!----></g></g> <g data-gra="path-slogan" fill-rule="" class="tp-slogan iconsvg-slogansvg" fill="#333" transform="translate(5,46.5900016784668)"><rect x="0" height="1" y="3.9750003814697266" width="17.889999389648438"></rect> <rect height="1" y="3.9750003814697266" width="17.889999389648438" x="132.69000244140625"></rect> <g transform="translate(20.889999389648438,0)"><g transform="scale(1)"><path d="M9.14-8.58L9.14 0L8.02 0L8.02-5.06Q8.02-5.77 8.02-7.22L8.02-7.22L5.58 0L4.41 0L2.02-7.22L1.97-7.22Q1.97-6.70 2.02-5.67L2.02-5.67Q2.02-5.16 2.02-5.06L2.02-5.06L2.02 0L0.84 0L0.84-8.58L2.53-8.58L5.02-1.31L7.45-8.58L9.14-8.58ZM16.50 0L15.66-2.48L12.19-2.48L11.30 0L10.13 0L13.36-8.58L14.67-8.58L17.77 0L16.50 0ZM13.92-7.31L12.56-3.52L15.23-3.52L13.97-7.31L13.92-7.31ZM21.33-4.31L19.97-3.05L19.97 0L18.80 0L18.80-8.58L19.97-8.58L19.97-4.41L24.14-8.58L25.78-8.58L22.17-5.11L25.88 0L24.33 0L21.33-4.31ZM28.08-1.03L33.23-1.03L33.23 0L26.91 0L26.91-8.58L33.14-8.58L33.14-7.59L28.08-7.59L28.08-4.92L32.77-4.92L32.77-3.89L28.08-3.89L28.08-1.03ZM38.25-8.58L39.42-8.58L39.42 0L38.25 0L38.25-8.58ZM43.59-7.59L40.69-7.59L40.69-8.58L47.63-8.58L47.63-7.59L44.72-7.59L44.72 0L43.59 0L43.59-7.59ZM55.64-7.64L53.30-7.64L53.30-4.64L55.59-4.64Q57.38-4.64 57.38-6.19L57.38-6.19Q57.38-7.59 55.64-7.64L55.64-7.64ZM56.02-3.61L53.30-3.61L53.30 0L52.13 0L52.13-8.58L56.02-8.58Q58.45-8.48 58.55-6.19L58.55-6.19Q58.41-3.70 56.02-3.61L56.02-3.61ZM66.75-4.27L66.75-4.27Q66.56-7.64 63.75-7.83L63.75-7.83Q60.89-7.69 60.75-4.27L60.75-4.27Q60.89-0.94 63.75-0.80L63.75-0.80Q66.56-0.98 66.75-4.27ZM67.92-4.27L67.92-4.27Q67.64 0 63.75 0.14L63.75 0.14Q59.81 0 59.53-4.27L59.53-4.27Q59.77-8.72 63.75-8.81L63.75-8.81Q67.64-8.67 67.92-4.27ZM75.56-6.09L75.56-6.09L74.48-6.09Q74.39-7.73 72.33-7.83L72.33-7.83Q70.41-7.78 70.41-6.33L70.41-6.33Q70.41-5.39 71.44-5.25L71.44-5.25L73.88-4.69Q75.80-4.22 75.80-2.34L75.80-2.34Q75.75 0.05 72.42 0.14L72.42 0.14Q70.59 0.14 69.84-0.61L69.84-0.61Q68.91-1.31 68.95-2.77L68.95-2.77L70.08-2.77Q70.13-0.80 72.42-0.75L72.42-0.75Q74.67-0.80 74.72-2.20L74.72-2.20Q74.91-3.38 72.84-3.75L72.84-3.75L71.06-4.13Q69.23-4.64 69.23-6.19L69.23-6.19Q69.38-8.72 72.23-8.81L72.23-8.81Q75.47-8.81 75.56-6.09ZM83.53-6.09L83.53-6.09L82.45-6.09Q82.36-7.73 80.30-7.83L80.30-7.83Q78.38-7.78 78.38-6.33L78.38-6.33Q78.38-5.39 79.41-5.25L79.41-5.25L81.84-4.69Q83.77-4.22 83.77-2.34L83.77-2.34Q83.72 0.05 80.39 0.14L80.39 0.14Q78.56 0.14 77.81-0.61L77.81-0.61Q76.88-1.31 76.92-2.77L76.92-2.77L78.05-2.77Q78.09-0.80 80.39-0.75L80.39-0.75Q82.64-0.80 82.69-2.20L82.69-2.20Q82.88-3.38 80.81-3.75L80.81-3.75L79.03-4.13Q77.20-4.64 77.20-6.19L77.20-6.19Q77.34-8.72 80.20-8.81L80.20-8.81Q83.44-8.81 83.53-6.09ZM85.41-8.58L86.58-8.58L86.58 0L85.41 0L85.41-8.58ZM91.78-7.64L89.72-7.64L89.72-4.97L91.78-4.97Q93.61-4.92 93.56-6.38L93.56-6.38Q93.56-7.64 91.78-7.64L91.78-7.64ZM92.25 0L88.55 0L88.55-8.58L92.34-8.58Q94.64-8.48 94.73-6.42L94.73-6.42Q94.73-5.16 93.61-4.64L93.61-4.64Q95.20-4.08 95.20-2.53L95.20-2.53Q95.06-0.09 92.25 0L92.25 0ZM91.97-3.98L89.72-3.98L89.72-0.98L92.20-0.98Q93.98-1.03 94.03-2.53L94.03-2.53Q94.03-3.98 91.97-3.98L91.97-3.98ZM96.52-8.58L97.69-8.58L97.69-1.03L102.05-1.03L102.05 0L96.52 0L96.52-8.58ZM104.48-1.03L109.64-1.03L109.64 0L103.31 0L103.31-8.58L109.55-8.58L109.55-7.59L104.48-7.59L104.48-4.92L109.17-4.92L109.17-3.89L104.48-3.89L104.48-1.03Z" transform="translate(-0.84375, 8.8125)"></path></g></g></g></g></g><mask data-mask="name-path" id="ojNhBAzA6EknuPN39x9Jp"><path d="M10.35-36.08L19.77-36.08Q24.27-36.08 26.67-34.65 29.06-33.22 29.06-29.01L29.06-29.01Q29.06-24.91 26.67-23.42 24.27-21.93 19.77-21.93L19.77-21.93 10.35-21.93 10.35-36.08ZM23.68-17.54Q34.97-18.83 34.97-29.01L34.97-29.01Q34.97-35.85 30.7-38.36L30.7-38.36Q26.37-40.94 19.3-40.94L19.3-40.94 4.68-40.94 4.68 0 9.47 0Q9.82 0 10.09-0.26 10.35-0.53 10.35-0.88L10.35-0.88 10.35-17.31 18.07-17.31 28.54 0 34.39 0 23.68-17.54ZM57.19 0Q57.72 0 57.95-0.53L57.95-0.53 72.63-40.94 67.54-40.94 55.67-7.66 43.74-40.94 37.54-40.94 52.4 0 57.19 0ZM81.93-34.85Q82.28-34.85 82.54-35.12 82.81-35.38 82.81-35.73L82.81-35.73 82.81-40.99 77.43-40.99 77.43-34.85 81.93-34.85ZM81.93 0Q82.28 0 82.54-0.26 82.81-0.53 82.81-0.88L82.81-0.88 82.81-32.11 77.43-32.11 77.43 0 81.93 0ZM113.22-10.94Q111.29-7.49 108.98-6.32 106.67-5.15 104.27-5.15L104.27-5.15Q101.81-5.15 99.65-6.32 97.49-7.49 96.14-9.71 94.8-11.93 94.8-14.91L94.8-14.91 118.42-14.91Q118.48-15.56 118.48-16.37L118.48-16.37Q118.48-21.58 116.43-25.29 114.39-29.01 111.08-30.88 107.78-32.75 104.04-32.75L104.04-32.75Q100.23-32.75 96.84-30.82 93.45-28.89 91.35-25.12 89.24-21.35 89.24-16.08L89.24-16.08Q89.24-11.05 91.4-7.4 93.57-3.74 97.08-1.87 100.58 0 104.5 0L104.5 0Q109.01 0 112.72-2.51 116.43-5.03 118.01-9.77L118.01-9.77 113.22-10.94ZM95.09-19.3Q95.26-22.11 96.58-24.15 97.89-26.2 99.91-27.28 101.93-28.36 104.09-28.36L104.09-28.36Q107.43-28.36 109.91-26.02 112.4-23.68 112.75-19.3L112.75-19.3 95.09-19.3ZM136.32 0Q136.67 0 136.84-0.09 137.02-0.18 137.13-0.58L137.13-0.58 143.39-23.98 149.71 0 154.68 0Q155.03 0 155.18-0.12 155.32-0.23 155.44-0.58L155.44-0.58 165.26-32.69 160-32.69 152.69-7.49 146.32-32.11 140.82-32.11Q139.3-26.49 138.48-23.68L138.48-23.68Q137.31-19.47 136.11-15.03 134.91-10.58 134.15-6.84L134.15-6.84 127.25-32.69 121.64-32.69 131.23 0 136.32 0Z" stroke-width="0.8" stroke-linejoin="round" stroke="#000" fill="#fff"></path></mask><defs v-gra="od"></defs></svg>